<?xml version="1.0" standalone="no"?>
<!DOCTYPE svg PUBLIC "-//W3C//DTD SVG 20010904//EN"
 "http://www.w3.org/TR/2001/REC-SVG-20010904/DTD/svg10.dtd">
<svg version="1.0" xmlns="http://www.w3.org/2000/svg"
 width="500.000000pt" height="500.000000pt" viewBox="0 0 500.000000 500.000000"
 preserveAspectRatio="xMidYMid meet">

<g transform="translate(0.000000,500.000000) scale(0.100000,-0.100000)"
fill="#040b2f" stroke="none">
<path d="M760 2500 l0 -480 1740 0 1740 0 0 480 0 480 -1740 0 -1740 0 0 -480z
m3450 0 l0 -450 -1715 0 -1715 0 0 450 0 450 1715 0 1715 0 0 -450z"/>
<path d="M850 2500 l0 -390 820 0 820 0 0 390 0 390 -820 0 -820 0 0 -390z
m447 123 c24 -16 43 -43 43 -62 0 -19 -18 -12 -48 19 -40 39 -97 42 -139 6
-24 -21 -28 -32 -28 -76 0 -44 4 -55 28 -76 42 -36 99 -33 139 6 16 17 36 30
44 30 12 0 12 -4 -1 -30 -41 -80 -188 -81 -230 0 -23 44 -19 111 8 151 38 57
123 72 184 32z m335 -1 c53 -31 73 -114 43 -172 -25 -49 -61 -70 -121 -70 -47
0 -59 4 -90 33 -28 26 -37 42 -41 78 -14 122 102 194 209 131z m307 4 c40 -21
63 -61 63 -111 0 -91 -53 -135 -161 -135 l-61 0 0 130 0 130 65 0 c38 0 78 -6
94 -14z m311 -1 c0 -12 -13 -15 -60 -15 l-60 0 0 -40 0 -40 55 0 c42 0 55 -3
55 -15 0 -12 -13 -15 -55 -15 l-55 0 0 -45 0 -45 65 0 c51 0 65 -3 65 -15 0
-12 -16 -15 -85 -15 l-85 0 0 130 0 130 80 0 c64 0 80 -3 80 -15z"/>
<path d="M1493 2595 c-54 -38 -50 -141 7 -170 59 -30 119 -12 146 43 13 29 14
41 5 73 -6 21 -21 45 -34 54 -28 19 -96 19 -124 0z"/>
<path d="M1810 2509 l0 -101 57 4 c46 4 61 10 80 32 34 40 32 99 -6 137 -25
24 -37 29 -80 29 l-51 0 0 -101z"/>
<path d="M2890 2510 l0 -130 84 0 c69 0 88 4 110 21 29 23 36 78 12 98 -12 10
-12 16 0 39 19 37 18 49 -11 77 -22 23 -32 25 -110 25 l-85 0 0 -130z m129 71
c23 -15 5 -41 -29 -41 -22 0 -30 5 -30 18 0 32 28 42 59 23z m6 -104 c25 -19
10 -37 -31 -37 -26 0 -34 4 -34 18 0 34 31 43 65 19z"/>
<path d="M3162 2583 c17 -32 38 -67 45 -78 7 -11 13 -43 13 -72 l0 -53 40 0
40 0 0 46 c0 36 10 63 45 126 25 44 45 82 45 84 0 2 -18 4 -40 4 -37 0 -41 -3
-64 -47 l-24 -48 -23 48 c-22 45 -25 47 -66 47 l-43 0 32 -57z"/>
<path d="M3410 2605 c0 -34 1 -35 40 -35 l40 0 0 -95 0 -95 35 0 35 0 0 95 0
95 40 0 c39 0 40 1 40 35 l0 35 -115 0 -115 0 0 -35z"/>
<path d="M3680 2510 l0 -130 90 0 90 0 0 30 c0 29 -1 30 -50 30 -43 0 -50 3
-50 20 0 17 7 20 45 20 43 0 45 1 45 30 0 29 -2 30 -45 30 -38 0 -45 3 -45 20
0 17 7 20 50 20 49 0 50 1 50 30 l0 30 -90 0 -90 0 0 -130z"/>
</g>
</svg>
